<svg width="121" height="44" viewBox="0 0 121 44" fill="none" xmlns="http://www.w3.org/2000/svg">
<g clip-path="url(#clip0_5_998)">
<path d="M7.36809 42.6586C5.91115 42.2455 0.424614 40.4201 0.0446472 33.4596H9.13964C9.41795 34.4924 9.86815 35.2514 10.5965 35.8014C11.3613 36.3514 12.402 36.6276 13.6847 36.6276H17.0512C18.2661 36.6276 19.239 36.3875 19.8973 35.8351C20.5919 35.3186 20.938 34.5261 20.938 33.5605C20.938 32.4917 20.4515 31.7687 19.7933 31.322C19.1325 30.8729 18.3 30.7023 17.5715 30.6326L10.7684 29.9769C7.64397 29.7368 5.21413 28.7016 3.54906 27.0827C1.91786 25.4639 1.01514 23.1894 1.01514 20.3984C1.01514 13.1304 7.33178 11.3387 8.75485 10.9592C10.1779 10.5797 11.9833 10.3732 14.6213 10.3732C19.8271 10.3732 22.5353 11.2354 24.9652 12.8879C27.3611 14.5427 28.6801 16.9518 28.9221 20.1559H19.8271C19.619 19.1567 19.2027 18.3977 18.5081 17.8813C17.7433 17.3312 16.739 17.0887 15.4538 17.0887H13.0579C11.947 17.0887 11.0104 17.3649 10.3497 17.8813C9.68905 18.3977 9.34295 19.1567 9.34295 20.0862C9.34295 20.9484 9.65515 21.6354 10.2456 22.1542C10.8361 22.6705 11.7026 22.9804 12.7796 23.0837L19.619 23.737C22.5692 23.9772 24.9652 24.873 26.5963 26.3214C28.4018 27.9402 29.3045 30.1787 29.3045 33.1065C29.3045 36.5868 28.1936 39.1015 25.7977 40.7876C23.4017 42.4761 19.6529 43.336 14.3067 43.336C10.87 43.3023 8.85649 43.0958 7.36324 42.6466L7.36809 42.6586Z" fill="#003A40"/>
<path d="M48.7464 34.8046H43.9206C41.907 34.8046 40.2758 33.1858 40.2758 31.1875V19.9925C40.2758 19.3728 40.7622 18.89 41.3866 18.89H48.7464V11.036H41.3866C40.7622 11.036 40.2758 10.5532 40.2758 9.93355V2.6296H32.3256V31.2235C32.3256 37.5283 37.4635 42.661 43.8504 42.661H48.744V34.807L48.7464 34.8046Z" fill="#003A40"/>
<path fill-rule="evenodd" clip-rule="evenodd" d="M69.1217 43.3143H66.3458C57.9453 43.3143 51.106 36.5268 51.106 28.19V25.4351C51.106 17.0983 57.9453 10.3107 66.3458 10.3107H69.1217C77.5221 10.3107 84.3616 17.0983 84.3616 25.4351V28.19C84.3616 36.5268 77.5221 43.3143 69.1217 43.3143ZM66.3458 18.0975C62.2847 18.0975 58.9521 21.3712 58.9521 25.4351V28.19C58.9521 32.2203 62.2508 35.5276 66.3458 35.5276H69.1217C73.1827 35.5276 76.5153 32.2539 76.5153 28.19V25.4351C76.5153 21.4048 73.2166 18.0975 69.1217 18.0975H66.3458Z" fill="#003A40"/>
<path d="M95.7119 19.9901V42.589H87.7616V21.9548C87.7616 15.9262 92.6915 11 98.7997 11H106.958V18.854H96.8231C96.1987 18.8876 95.7119 19.3705 95.7119 19.9901Z" fill="#003A40"/>
<path d="M111.265 18.8877H109.563V11.0336H120.323V42.6226H112.373V20.0238C112.373 19.3681 111.886 18.8877 111.262 18.8877H111.265Z" fill="#003A40"/>
<path d="M111.852 0.388733H120.323V8.75914H112.963C112.339 8.75914 111.852 8.27637 111.852 7.6567V0.388733Z" fill="#003A40"/>
</g>
<defs>
<clipPath id="clip0_5_998">
<rect width="121" height="44" fill="white"/>
</clipPath>
</defs>
</svg>
